<svg xmlns="http://www.w3.org/2000/svg" width="1280" height="720" viewBox="0 0 1280 720" role="img" aria-labelledby="title desc">
  <title id="title">Personal Portfolio Lifecycle Dark</title>
  <desc id="desc">Dark mode version of the six-stage portfolio lifecycle.</desc>

  <rect width="1280" height="720" fill="#0f1519"/>
  <text x="62" y="72" fill="#78c6cf" font-family="Sora, Arial, sans-serif" font-size="38" font-weight="700">Personal Portfolio Lifecycle</text>
  <text x="62" y="104" fill="#bfe7ed" font-family="Plus Jakarta Sans, Arial, sans-serif" font-size="18">Six-stage delivery flow with clear handoff points and quality checks</text>

  <g font-family="Plus Jakarta Sans, Arial, sans-serif">
    <g transform="translate(50,130)">
      <rect width="350" height="170" rx="16" fill="#152129" stroke="#78c6cf" stroke-opacity="0.5"/>
      <text x="20" y="36" fill="#78c6cf" font-size="19" font-weight="700">1. Discovery + Positioning</text>
      <text x="20" y="66" fill="#d7edf1" font-size="15">
        <tspan x="20" dy="0">Define audience, conversion goals, and section map.</tspan>
        <tspan x="20" dy="24">Translate profile content into portfolio-ready copy.</tspan>
        <tspan x="20" dy="24">Set priorities for implementation and iteration.</tspan>
      </text>
    </g>

    <g transform="translate(465,130)">
      <rect width="350" height="170" rx="16" fill="#152129" stroke="#78c6cf" stroke-opacity="0.5"/>
      <text x="20" y="36" fill="#78c6cf" font-size="19" font-weight="700">2. Visual System Design</text>
      <text x="20" y="66" fill="#d7edf1" font-size="15">
        <tspan x="20" dy="0">Build palette hierarchy and typography direction.</tspan>
        <tspan x="20" dy="24">Standardize card patterns, spacing, and rhythm.</tspan>
        <tspan x="20" dy="24">Align visual tone with professional positioning.</tspan>
      </text>
    </g>

    <g transform="translate(880,130)">
      <rect width="350" height="170" rx="16" fill="#152129" stroke="#78c6cf" stroke-opacity="0.5"/>
      <text x="20" y="36" fill="#78c6cf" font-size="19" font-weight="700">3. Front-End Build</text>
      <text x="20" y="66" fill="#d7edf1" font-size="15">
        <tspan x="20" dy="0">Implement semantic HTML and responsive CSS.</tspan>
        <tspan x="20" dy="24">Create dynamic JavaScript project-card behaviors.</tspan>
        <tspan x="20" dy="24">Ship dedicated project documentation pages.</tspan>
      </text>
    </g>

    <g transform="translate(50,380)">
      <rect width="350" height="170" rx="16" fill="#152129" stroke="#78c6cf" stroke-opacity="0.5"/>
      <text x="20" y="36" fill="#78c6cf" font-size="19" font-weight="700">4. UX + Content Iteration</text>
      <text x="20" y="66" fill="#d7edf1" font-size="15">
        <tspan x="20" dy="0">Refine nav flow, section order, and action paths.</tspan>
        <tspan x="20" dy="24">Improve copy hierarchy and stakeholder clarity.</tspan>
        <tspan x="20" dy="24">Apply fast revision loops from user feedback.</tspan>
      </text>
    </g>

    <g transform="translate(465,380)">
      <rect width="350" height="170" rx="16" fill="#152129" stroke="#78c6cf" stroke-opacity="0.5"/>
      <text x="20" y="36" fill="#78c6cf" font-size="19" font-weight="700">5. Quality Hardening</text>
      <text x="20" y="66" fill="#d7edf1" font-size="15">
        <tspan x="20" dy="0">Add skip links, focus styles, and semantic fixes.</tspan>
        <tspan x="20" dy="24">Run accessibility and contrast verification.</tspan>
        <tspan x="20" dy="24">Optimize assets and critical loading behavior.</tspan>
      </text>
    </g>

    <g transform="translate(880,380)">
      <rect width="350" height="170" rx="16" fill="#152129" stroke="#78c6cf" stroke-opacity="0.5"/>
      <text x="20" y="36" fill="#78c6cf" font-size="19" font-weight="700">6. Deploy + Measure</text>
      <text x="20" y="66" fill="#d7edf1" font-size="15">
        <tspan x="20" dy="0">Push to GitHub and run Pages deployment.</tspan>
        <tspan x="20" dy="24">Validate Lighthouse and performance targets.</tspan>
        <tspan x="20" dy="24">Log outcomes and queue the next iteration.</tspan>
      </text>
    </g>
  </g>

  <g stroke="#78c6cf" stroke-width="3" fill="none">
    <line x1="400" y1="215" x2="465" y2="215"/>
    <line x1="815" y1="215" x2="880" y2="215"/>
    <line x1="1055" y1="300" x2="1055" y2="380"/>
    <line x1="880" y1="465" x2="815" y2="465"/>
    <line x1="465" y1="465" x2="400" y2="465"/>
    <line x1="225" y1="380" x2="225" y2="300"/>
  </g>

  <g fill="#78c6cf">
    <polygon points="459,209 475,215 459,221"/>
    <polygon points="874,209 890,215 874,221"/>
    <polygon points="1049,374 1055,390 1061,374"/>
    <polygon points="821,459 805,465 821,471"/>
    <polygon points="406,459 390,465 406,471"/>
    <polygon points="219,306 225,290 231,306"/>
  </g>
</svg>
