<svg xmlns="http://www.w3.org/2000/svg" width="1280" height="720" viewBox="0 0 1280 720" role="img" aria-labelledby="title desc">
  <title id="title">Personal Portfolio Lifecycle Dark</title>
  <desc id="desc">Dark mode two-column lifecycle diagram with six steps.</desc>

  <rect width="1280" height="720" fill="#0f1519"/>
  <text x="62" y="70" fill="#78c6cf" font-family="Sora, Arial, sans-serif" font-size="36" font-weight="700">Personal Portfolio Lifecycle</text>
  <text x="62" y="102" fill="#bfe7ed" font-family="Plus Jakarta Sans, Arial, sans-serif" font-size="18">Step-by-step delivery flow used to build and ship the portfolio</text>

  <g font-family="Plus Jakarta Sans, Arial, sans-serif">
    <g transform="translate(60,130)">
      <rect width="520" height="145" rx="16" fill="#152129" stroke="#78c6cf" stroke-opacity="0.5"/>
      <text x="20" y="34" fill="#78c6cf" font-size="19" font-weight="700">1. Discovery + Positioning</text>
      <text x="20" y="60" fill="#d7edf1" font-size="14">
        <tspan x="20" dy="0">Define audience, desired outcomes, and conversion goals.</tspan>
        <tspan x="20" dy="22">Map profile information into section-level architecture.</tspan>
        <tspan x="20" dy="22">Prioritize implementation order for delivery speed.</tspan>
      </text>
    </g>

    <g transform="translate(700,130)">
      <rect width="520" height="145" rx="16" fill="#152129" stroke="#78c6cf" stroke-opacity="0.5"/>
      <text x="20" y="34" fill="#78c6cf" font-size="19" font-weight="700">2. Visual System Design</text>
      <text x="20" y="60" fill="#d7edf1" font-size="14">
        <tspan x="20" dy="0">Set palette, typography, and hierarchy rules.</tspan>
        <tspan x="20" dy="22">Build reusable card and spacing patterns.</tspan>
        <tspan x="20" dy="22">Tune readability and visual consistency.</tspan>
      </text>
    </g>

    <g transform="translate(60,305)">
      <rect width="520" height="145" rx="16" fill="#152129" stroke="#78c6cf" stroke-opacity="0.5"/>
      <text x="20" y="34" fill="#78c6cf" font-size="19" font-weight="700">4. UX + Content Iteration</text>
      <text x="20" y="60" fill="#d7edf1" font-size="14">
        <tspan x="20" dy="0">Refine section order and navigation flow.</tspan>
        <tspan x="20" dy="22">Improve copy clarity and CTA precision.</tspan>
        <tspan x="20" dy="22">Apply rapid updates from stakeholder feedback.</tspan>
      </text>
    </g>

    <g transform="translate(700,305)">
      <rect width="520" height="145" rx="16" fill="#152129" stroke="#78c6cf" stroke-opacity="0.5"/>
      <text x="20" y="34" fill="#78c6cf" font-size="19" font-weight="700">3. Front-End Build</text>
      <text x="20" y="60" fill="#d7edf1" font-size="14">
        <tspan x="20" dy="0">Implement semantic HTML and responsive CSS.</tspan>
        <tspan x="20" dy="22">Create dynamic JavaScript project components.</tspan>
        <tspan x="20" dy="22">Build standalone project documentation pages.</tspan>
      </text>
    </g>

    <g transform="translate(60,480)">
      <rect width="520" height="145" rx="16" fill="#152129" stroke="#78c6cf" stroke-opacity="0.5"/>
      <text x="20" y="34" fill="#78c6cf" font-size="19" font-weight="700">5. Quality Hardening</text>
      <text x="20" y="60" fill="#d7edf1" font-size="14">
        <tspan x="20" dy="0">Add skip links, focus states, and semantic fixes.</tspan>
        <tspan x="20" dy="22">Validate contrast and accessibility structure.</tspan>
        <tspan x="20" dy="22">Optimize assets and critical load behavior.</tspan>
      </text>
    </g>

    <g transform="translate(700,480)">
      <rect width="520" height="145" rx="16" fill="#152129" stroke="#78c6cf" stroke-opacity="0.5"/>
      <text x="20" y="34" fill="#78c6cf" font-size="19" font-weight="700">6. Deploy + Measure</text>
      <text x="20" y="60" fill="#d7edf1" font-size="14">
        <tspan x="20" dy="0">Push to GitHub Pages and verify deployment.</tspan>
        <tspan x="20" dy="22">Audit Lighthouse and performance indicators.</tspan>
        <tspan x="20" dy="22">Capture learnings for the next release cycle.</tspan>
      </text>
    </g>
  </g>

  <g stroke="#78c6cf" stroke-width="3" fill="none">
    <line x1="580" y1="202" x2="700" y2="202"/>
    <line x1="960" y1="275" x2="960" y2="305"/>
    <line x1="700" y1="377" x2="580" y2="377"/>
    <line x1="320" y1="450" x2="320" y2="480"/>
    <line x1="580" y1="552" x2="700" y2="552"/>
  </g>

  <g fill="#78c6cf">
    <polygon points="694,196 710,202 694,208"/>
    <polygon points="954,299 960,315 966,299"/>
    <polygon points="586,371 570,377 586,383"/>
    <polygon points="314,474 320,490 326,474"/>
    <polygon points="694,546 710,552 694,558"/>
  </g>
</svg>
