<svg xmlns="http://www.w3.org/2000/svg" width="1280" height="720" viewBox="0 0 1280 720" role="img" aria-labelledby="title desc">
  <title id="title">Personal Portfolio Lifecycle</title>
  <desc id="desc">Six-stage delivery lifecycle for the personal portfolio project.</desc>
  <defs>
    <linearGradient id="bg" x1="0" y1="0" x2="1" y2="1">
      <stop offset="0%" stop-color="#fefaf7"/>
      <stop offset="100%" stop-color="#ffffff"/>
    </linearGradient>
    <filter id="shadow" x="-20%" y="-20%" width="140%" height="140%">
      <feDropShadow dx="0" dy="7" stdDeviation="7" flood-color="#154d57" flood-opacity="0.14"/>
    </filter>
  </defs>

  <rect width="1280" height="720" fill="url(#bg)"/>
  <text x="72" y="72" fill="#154d57" font-family="Sora, Arial, sans-serif" font-size="40" font-weight="700">Personal Portfolio Lifecycle</text>
  <text x="72" y="106" fill="#154d57" font-family="Plus Jakarta Sans, Arial, sans-serif" font-size="19">Structured delivery sequence from discovery through deployment and iteration</text>

  <g font-family="Plus Jakarta Sans, Arial, sans-serif" filter="url(#shadow)">
    <g transform="translate(70,150)">
      <rect width="360" height="142" rx="18" fill="#ffffff" stroke="#154d57" stroke-opacity="0.26"/>
      <text x="22" y="38" fill="#154d57" font-size="20" font-weight="700">1. Discovery + Positioning</text>
      <text x="22" y="68" fill="#154d57" font-size="15">Define audience, messaging, and page architecture.</text>
      <text x="22" y="92" fill="#154d57" font-size="15">Map LinkedIn profile data into portfolio sections.</text>
      <text x="22" y="116" fill="#154d57" font-size="15">Set conversion goals for recruiter journeys.</text>
    </g>

    <g transform="translate(460,150)">
      <rect width="360" height="142" rx="18" fill="#ffffff" stroke="#154d57" stroke-opacity="0.26"/>
      <text x="22" y="38" fill="#154d57" font-size="20" font-weight="700">2. Visual System Design</text>
      <text x="22" y="68" fill="#154d57" font-size="15">Establish palette hierarchy and type scale.</text>
      <text x="22" y="92" fill="#154d57" font-size="15">Tune spacing rhythm and reusable card patterns.</text>
      <text x="22" y="116" fill="#154d57" font-size="15">Align style direction with professional branding.</text>
    </g>

    <g transform="translate(850,150)">
      <rect width="360" height="142" rx="18" fill="#ffffff" stroke="#154d57" stroke-opacity="0.26"/>
      <text x="22" y="38" fill="#154d57" font-size="20" font-weight="700">3. Front-End Implementation</text>
      <text x="22" y="68" fill="#154d57" font-size="15">Build semantic HTML sections and responsive CSS.</text>
      <text x="22" y="92" fill="#154d57" font-size="15">Generate dynamic project cards via JavaScript.</text>
      <text x="22" y="116" fill="#154d57" font-size="15">Create dedicated project documentation pages.</text>
    </g>

    <g transform="translate(70,360)">
      <rect width="360" height="142" rx="18" fill="#ffffff" stroke="#154d57" stroke-opacity="0.26"/>
      <text x="22" y="38" fill="#154d57" font-size="20" font-weight="700">4. UX + Content Iteration</text>
      <text x="22" y="68" fill="#154d57" font-size="15">Reorder sections based on user review feedback.</text>
      <text x="22" y="92" fill="#154d57" font-size="15">Refine CTA language, copy clarity, and spacing.</text>
      <text x="22" y="116" fill="#154d57" font-size="15">Improve visual coherence across all components.</text>
    </g>

    <g transform="translate(460,360)">
      <rect width="360" height="142" rx="18" fill="#ffffff" stroke="#154d57" stroke-opacity="0.26"/>
      <text x="22" y="38" fill="#154d57" font-size="20" font-weight="700">5. Quality Hardening</text>
      <text x="22" y="68" fill="#154d57" font-size="15">Add skip link, focus states, and semantic order.</text>
      <text x="22" y="92" fill="#154d57" font-size="15">Run contrast checks and accessibility audits.</text>
      <text x="22" y="116" fill="#154d57" font-size="15">Optimize assets, preload critical resources.</text>
    </g>

    <g transform="translate(850,360)">
      <rect width="360" height="142" rx="18" fill="#ffffff" stroke="#154d57" stroke-opacity="0.26"/>
      <text x="22" y="38" fill="#154d57" font-size="20" font-weight="700">6. Deploy + Measure</text>
      <text x="22" y="68" fill="#154d57" font-size="15">Push to GitHub and trigger Pages deployment.</text>
      <text x="22" y="92" fill="#154d57" font-size="15">Validate Lighthouse and performance indicators.</text>
      <text x="22" y="116" fill="#154d57" font-size="15">Capture outcomes and feed next iteration cycle.</text>
    </g>
  </g>

  <g stroke="#154d57" stroke-width="3" stroke-opacity="0.44" fill="none">
    <path d="M430 221 L460 221"/>
    <path d="M820 221 L850 221"/>
    <path d="M1030 292 L1030 360"/>
    <path d="M850 431 L820 431"/>
    <path d="M460 431 L430 431"/>
    <path d="M250 360 L250 292"/>
  </g>

  <g fill="#154d57">
    <polygon points="456,215 472,221 456,227"/>
    <polygon points="846,215 862,221 846,227"/>
    <polygon points="1024,356 1030,372 1036,356"/>
    <polygon points="824,425 808,431 824,437"/>
    <polygon points="434,425 418,431 434,437"/>
    <polygon points="244,296 250,280 256,296"/>
  </g>
</svg>
