<svg xmlns="http://www.w3.org/2000/svg" width="1280" height="720" viewBox="0 0 1280 720" role="img" aria-labelledby="title desc">
  <title id="title">Personal Portfolio Lifecycle</title>
  <desc id="desc">Two-column lifecycle diagram with six steps from discovery to deployment.</desc>

  <rect width="1280" height="720" fill="#fefaf7"/>
  <text x="62" y="70" fill="#154d57" font-family="Sora, Arial, sans-serif" font-size="36" font-weight="700">Personal Portfolio Lifecycle</text>
  <text x="62" y="102" fill="#2b6777" font-family="Plus Jakarta Sans, Arial, sans-serif" font-size="18">Step-by-step delivery flow used to build and ship the portfolio</text>

  <g font-family="Plus Jakarta Sans, Arial, sans-serif">
    <g transform="translate(60,130)">
      <rect width="520" height="120" rx="16" fill="#ffffff" stroke="#2b6777" stroke-opacity="0.3"/>
      <text x="20" y="30" fill="#154d57" font-size="18" font-weight="700">1. Discovery + Positioning</text>
      <text x="20" y="54" fill="#2b6777" font-size="13">
        <tspan x="20" dy="0">Define audience, desired outcomes, and conversion goals.</tspan>
        <tspan x="20" dy="19">Map profile information into section-level architecture.</tspan>
        <tspan x="20" dy="19">Prioritize implementation order for delivery speed.</tspan>
      </text>
    </g>

    <g transform="translate(700,130)">
      <rect width="520" height="120" rx="16" fill="#ffffff" stroke="#2b6777" stroke-opacity="0.3"/>
      <text x="20" y="30" fill="#154d57" font-size="18" font-weight="700">2. Visual System Design</text>
      <text x="20" y="54" fill="#2b6777" font-size="13">
        <tspan x="20" dy="0">Set palette, typography, and hierarchy rules.</tspan>
        <tspan x="20" dy="19">Build reusable card and spacing patterns.</tspan>
        <tspan x="20" dy="19">Tune readability and visual consistency.</tspan>
      </text>
    </g>

    <g transform="translate(60,290)">
      <rect width="520" height="120" rx="16" fill="#ffffff" stroke="#2b6777" stroke-opacity="0.3"/>
      <text x="20" y="30" fill="#154d57" font-size="18" font-weight="700">4. UX + Content Iteration</text>
      <text x="20" y="54" fill="#2b6777" font-size="13">
        <tspan x="20" dy="0">Refine section order and navigation flow.</tspan>
        <tspan x="20" dy="19">Improve copy clarity and CTA precision.</tspan>
        <tspan x="20" dy="19">Apply rapid updates from stakeholder feedback.</tspan>
      </text>
    </g>

    <g transform="translate(700,290)">
      <rect width="520" height="120" rx="16" fill="#ffffff" stroke="#2b6777" stroke-opacity="0.3"/>
      <text x="20" y="30" fill="#154d57" font-size="18" font-weight="700">3. Front-End Build</text>
      <text x="20" y="54" fill="#2b6777" font-size="13">
        <tspan x="20" dy="0">Implement semantic HTML and responsive CSS.</tspan>
        <tspan x="20" dy="19">Create dynamic JavaScript project components.</tspan>
        <tspan x="20" dy="19">Build standalone project documentation pages.</tspan>
      </text>
    </g>

    <g transform="translate(60,450)">
      <rect width="520" height="120" rx="16" fill="#ffffff" stroke="#2b6777" stroke-opacity="0.3"/>
      <text x="20" y="30" fill="#154d57" font-size="18" font-weight="700">5. Quality Hardening</text>
      <text x="20" y="54" fill="#2b6777" font-size="13">
        <tspan x="20" dy="0">Add skip links, focus states, and semantic fixes.</tspan>
        <tspan x="20" dy="19">Validate contrast and accessibility structure.</tspan>
        <tspan x="20" dy="19">Optimize assets and critical load behavior.</tspan>
      </text>
    </g>

    <g transform="translate(700,450)">
      <rect width="520" height="120" rx="16" fill="#ffffff" stroke="#2b6777" stroke-opacity="0.3"/>
      <text x="20" y="30" fill="#154d57" font-size="18" font-weight="700">6. Deploy + Measure</text>
      <text x="20" y="54" fill="#2b6777" font-size="13">
        <tspan x="20" dy="0">Push to GitHub Pages and verify deployment.</tspan>
        <tspan x="20" dy="19">Audit Lighthouse and performance indicators.</tspan>
        <tspan x="20" dy="19">Capture learnings for the next release cycle.</tspan>
      </text>
    </g>
  </g>

  <g stroke="#2b6777" stroke-width="3" fill="none">
    <line x1="580" y1="190" x2="700" y2="190"/>
    <line x1="960" y1="250" x2="960" y2="290"/>
    <line x1="700" y1="350" x2="580" y2="350"/>
    <line x1="320" y1="410" x2="320" y2="450"/>
    <line x1="580" y1="510" x2="700" y2="510"/>
  </g>

  <g fill="#2b6777">
    <polygon points="694,184 710,190 694,196"/>
    <polygon points="954,284 960,300 966,284"/>
    <polygon points="586,344 570,350 586,356"/>
    <polygon points="314,444 320,460 326,444"/>
    <polygon points="694,504 710,510 694,516"/>
  </g>
</svg>
