<svg xmlns="http://www.w3.org/2000/svg" width="1280" height="720" viewBox="0 0 1280 720" role="img" aria-labelledby="title desc">
  <title id="title">Prompt Engineering Workflow</title>
  <desc id="desc">Structured six-step workflow for prompt engineering and iteration.</desc>
  <defs>
    <linearGradient id="bg2" x1="0" y1="0" x2="1" y2="1">
      <stop offset="0%" stop-color="#ffffff"/>
      <stop offset="100%" stop-color="#fefaf7"/>
    </linearGradient>
    <filter id="shadow2" x="-20%" y="-20%" width="140%" height="140%">
      <feDropShadow dx="0" dy="7" stdDeviation="7" flood-color="#154d57" flood-opacity="0.14"/>
    </filter>
  </defs>

  <rect width="1280" height="720" fill="url(#bg2)"/>
  <text x="72" y="72" fill="#154d57" font-family="Sora, Arial, sans-serif" font-size="40" font-weight="700">Prompt Engineering Workflow</text>
  <text x="72" y="106" fill="#154d57" font-family="Plus Jakarta Sans, Arial, sans-serif" font-size="19">Repeatable process used to move from request to validated production outcome</text>

  <g font-family="Plus Jakarta Sans, Arial, sans-serif" filter="url(#shadow2)">
    <g transform="translate(70,160)">
      <rect width="360" height="142" rx="18" fill="#ffffff" stroke="#154d57" stroke-opacity="0.26"/>
      <text x="22" y="38" fill="#154d57" font-size="20" font-weight="700">1. Objective Prompt</text>
      <text x="22" y="68" fill="#154d57" font-size="15">Define user request, constraints, and outcome.</text>
      <text x="22" y="92" fill="#154d57" font-size="15">Establish quality bar for visual and technical fit.</text>
      <text x="22" y="116" fill="#154d57" font-size="15">Set scope for the current delivery iteration.</text>
    </g>

    <g transform="translate(460,160)">
      <rect width="360" height="142" rx="18" fill="#ffffff" stroke="#154d57" stroke-opacity="0.26"/>
      <text x="22" y="38" fill="#154d57" font-size="20" font-weight="700">2. Constraint Prompt</text>
      <text x="22" y="68" fill="#154d57" font-size="15">Apply color, spacing, typography, and UX rules.</text>
      <text x="22" y="92" fill="#154d57" font-size="15">Require semantic structure and consistency.</text>
      <text x="22" y="116" fill="#154d57" font-size="15">Prevent design drift across sections/components.</text>
    </g>

    <g transform="translate(850,160)">
      <rect width="360" height="142" rx="18" fill="#ffffff" stroke="#154d57" stroke-opacity="0.26"/>
      <text x="22" y="38" fill="#154d57" font-size="20" font-weight="700">3. Build Prompt</text>
      <text x="22" y="68" fill="#154d57" font-size="15">Generate concrete HTML, CSS, and JS edits.</text>
      <text x="22" y="92" fill="#154d57" font-size="15">Update content structure and interaction states.</text>
      <text x="22" y="116" fill="#154d57" font-size="15">Preserve deploy-safe, production-ready output.</text>
    </g>

    <g transform="translate(70,380)">
      <rect width="360" height="142" rx="18" fill="#ffffff" stroke="#154d57" stroke-opacity="0.26"/>
      <text x="22" y="38" fill="#154d57" font-size="20" font-weight="700">6. Release Prompt</text>
      <text x="22" y="68" fill="#154d57" font-size="15">Commit and deploy updates to GitHub Pages.</text>
      <text x="22" y="92" fill="#154d57" font-size="15">Verify run status and publish the live result.</text>
      <text x="22" y="116" fill="#154d57" font-size="15">Capture improvements for the next cycle.</text>
    </g>

    <g transform="translate(460,380)">
      <rect width="360" height="142" rx="18" fill="#ffffff" stroke="#154d57" stroke-opacity="0.26"/>
      <text x="22" y="38" fill="#154d57" font-size="20" font-weight="700">5. Refinement Prompt</text>
      <text x="22" y="68" fill="#154d57" font-size="15">Apply targeted edits from user feedback.</text>
      <text x="22" y="92" fill="#154d57" font-size="15">Tune copy, spacing, hierarchy, and flow details.</text>
      <text x="22" y="116" fill="#154d57" font-size="15">Iterate quickly without breaking consistency.</text>
    </g>

    <g transform="translate(850,380)">
      <rect width="360" height="142" rx="18" fill="#ffffff" stroke="#154d57" stroke-opacity="0.26"/>
      <text x="22" y="38" fill="#154d57" font-size="20" font-weight="700">4. Evaluation Prompt</text>
      <text x="22" y="68" fill="#154d57" font-size="15">Run accessibility and contrast validation.</text>
      <text x="22" y="92" fill="#154d57" font-size="15">Audit performance metrics and layout stability.</text>
      <text x="22" y="116" fill="#154d57" font-size="15">Flag regressions before release.</text>
    </g>
  </g>

  <g stroke="#154d57" stroke-width="3" stroke-opacity="0.44" fill="none">
    <path d="M430 231 L460 231"/>
    <path d="M820 231 L850 231"/>
    <path d="M1030 302 L1030 380"/>
    <path d="M850 451 L820 451"/>
    <path d="M460 451 L430 451"/>
    <path d="M250 380 L250 302"/>
  </g>

  <g fill="#154d57">
    <polygon points="456,225 472,231 456,237"/>
    <polygon points="846,225 862,231 846,237"/>
    <polygon points="1024,376 1030,392 1036,376"/>
    <polygon points="824,445 808,451 824,457"/>
    <polygon points="434,445 418,451 434,457"/>
    <polygon points="244,306 250,290 256,306"/>
  </g>
</svg>
