<?xml version="1.0" encoding="utf-8"?>
<!-- Generator: Adobe Illustrator 18.1.1, SVG Export Plug-In . SVG Version: 6.00 Build 0)  -->
<svg version="1.1" id="Layer_1" xmlns="http://www.w3.org/2000/svg" xmlns:xlink="http://www.w3.org/1999/xlink" x="0px" y="0px"
	 viewBox="0 0 425.5 179.2" enable-background="new 0 0 425.5 179.2" xml:space="preserve">
<g id="Symbol_1_">
	<path fill="#B01C87" d="M390,90.2V43.1h11.8v47.2H390z M403,10.7c0-4-3.1-7.2-7.1-7.2c-4,0-7.2,3.2-7.2,7.2c0,4,3.2,7.1,7.2,7.1
		C399.9,17.8,403,14.7,403,10.7z"/>
	<path fill="#D30C55" d="M364.7,6v47.2H353V6H364.7z M351.7,85.5c0,4,3.1,7.2,7.1,7.2c4,0,7.2-3.2,7.2-7.2c0-4-3.2-7.1-7.2-7.1
		C354.8,78.4,351.7,81.5,351.7,85.5z"/>
	<path fill="#D40E8C" d="M419.5,35.5h-47.2V23.7h47.2V35.5z M340,22.5c-4,0-7.2,3.1-7.2,7.1c0,4,3.2,7.2,7.2,7.2
		c4,0,7.1-3.2,7.1-7.2C347.1,25.6,344,22.5,340,22.5z"/>
	<path fill="#ED1944" d="M335.3,60.7h47.2v11.8h-47.2V60.7z M414.7,73.7c4,0,7.2-3.1,7.2-7.1c0-4-3.2-7.2-7.2-7.2
		c-4,0-7.1,3.2-7.1,7.2C407.7,70.7,410.8,73.7,414.7,73.7z"/>
</g>
<g id="Wordmark_1_">
	<path id="Insight_1_" fill="#554741" d="M3.6,149V65.6h13.7V149H3.6z M157,72.5c0-4.3-3.4-7.8-7.7-7.8c-4.3,0-7.8,3.5-7.8,7.8
		c0,4.3,3.5,7.7,7.8,7.7C153.6,80.3,157,76.9,157,72.5z M155.9,149V90.2h-13.3V149H155.9z M80.6,113.6L80.6,113.6
		c0-16.2-10.3-25-27.4-25c-11.9,0-21.3,5.4-22.5,5.9V149H44v-47c1.4-0.6,5.4-2.2,9.9-2.2c9,0,13.5,5,13.5,13.6V149h13.3V113.6z
		 M283.3,113.6c0-15.4-10.8-25.1-24.6-25.1c-8,0-11.7,2.4-12,2.5V62.6h-13.3V149h13.3v-47c0.4-0.2,4.4-2.2,9.5-2.2
		c8.9,0,13.9,4.8,13.9,13.6V149h13.3L283.3,113.6L283.3,113.6z M132.6,132.3c0-9.9-7.1-14.2-14.2-17.3c-1.2-0.5-5.1-2.1-5.7-2.4
		c-5-2.1-8.5-3.6-8.5-7.6c0-3,2.4-5.8,9.4-5.8c6.8,0,12.7,3.5,13.3,3.8l4.9-9.2c-0.4-0.2-6.9-5.3-19-5.3c-12.9,0-21.8,7-21.8,17.6
		c0,9.5,6.7,13.7,13.1,16.3c0.8,0.3,6.4,2.7,7.7,3.2c5,2,7.5,4.1,7.5,7.4c0,3.6-3.3,6.9-10.5,6.9c-7.5,0-13.9-4.2-14.9-4.8l-5,9.2
		c0.7,0.6,8.9,6.3,21.5,6.3C123.2,150.6,132.6,143.9,132.6,132.3z M220.4,94.4v50.3c0,18.1-8.2,30.9-29.4,30.9
		c-8.3,0-14.3-1.6-15.4-1.8v-10.9c1.4,0.4,7.5,2,13.7,2c13.2,0,17.8-6.6,17.8-15.6v-1.1c-0.9,0.4-5,2.3-11.4,2.3
		c-19,0-29.4-14.2-29.4-31c0-17.7,11-31.1,30.9-31.1C209,88.5,218.9,93.7,220.4,94.4z M207.2,102c-0.8-0.4-4.8-2.2-10.2-2.2
		c-9.9,0-17.2,7.3-17.2,19.8c0,13.3,8.4,19.6,17.2,19.6c5.2,0,9.8-1.8,10.2-2.2V102z M308.5,101h15V90.2h-15.1V72.5h-13.1v53
		c0,16.1,7.2,23.5,23,23.5c0.5,0,5.3,0,5.3,0v-11.1c-10.7,0-15-3.1-15-14.1L308.5,101z"/>
	<path id="R_1_" fill="#554741" d="M340.8,140.8c-3.1,0-5.6,2.5-5.6,5.5v0c0,3,2.4,5.5,5.5,5.5c3.1,0,5.6-2.5,5.6-5.5v0
		C346.4,143.3,343.9,140.8,340.8,140.8z M345.5,146.4c0,2.6-2,4.7-4.7,4.7c-2.6,0-4.6-2.1-4.6-4.7v0c0-2.6,2-4.7,4.7-4.7
		C343.5,141.7,345.5,143.8,345.5,146.4L345.5,146.4z M342.1,147c0.7-0.3,1.2-0.8,1.2-1.7v0c0-0.5-0.2-0.9-0.5-1.2
		c-0.4-0.4-1-0.6-1.7-0.6h-2.5v5.6h1.2v-1.8h0.9h0l1.2,1.8h1.4L342.1,147z M342.1,145.3c0,0.5-0.3,0.8-1,0.8h-1.2v-1.7h1.2
		C341.7,144.5,342.1,144.8,342.1,145.3L342.1,145.3z"/>
</g>
</svg>
